<svg xmlns="http://www.w3.org/2000/svg" viewBox="0 0 100 100">
  <!-- Left heart half — dusty rose -->
  <path d="M50,32 C49,26 43,16 31,16 C16,16 5,29 5,42 C5,60 24,73 50,90 Z" fill="#A87898"/>
  <!-- Right heart half — sage green -->
  <path d="M50,32 L50,90 C76,73 95,60 95,42 C95,29 84,16 69,16 C57,16 51,26 50,32 Z" fill="#8FAA90"/>
  <!-- Tree — trunk and branching limbs with rounded ends -->
  <g stroke="#181010" stroke-linecap="round" stroke-linejoin="round" fill="none">
    <line x1="50" y1="88" x2="50" y2="64" stroke-width="3.8"/>
    <line x1="50" y1="64" x2="29" y2="50" stroke-width="3.2"/>
    <line x1="50" y1="64" x2="71" y2="50" stroke-width="3.2"/>
    <line x1="29" y1="50" x2="17" y2="36" stroke-width="2.5"/>
    <line x1="29" y1="50" x2="33" y2="32" stroke-width="2.5"/>
    <line x1="71" y1="50" x2="67" y2="32" stroke-width="2.5"/>
    <line x1="71" y1="50" x2="83" y2="36" stroke-width="2.5"/>
    <line x1="17" y1="36" x2="11" y2="22" stroke-width="1.9"/>
    <line x1="17" y1="36" x2="20" y2="20" stroke-width="1.9"/>
    <line x1="33" y1="32" x2="27" y2="18" stroke-width="1.9"/>
    <line x1="33" y1="32" x2="37" y2="15" stroke-width="1.9"/>
    <line x1="67" y1="32" x2="63" y2="15" stroke-width="1.9"/>
    <line x1="67" y1="32" x2="73" y2="18" stroke-width="1.9"/>
    <line x1="83" y1="36" x2="79" y2="20" stroke-width="1.9"/>
    <line x1="83" y1="36" x2="89" y2="22" stroke-width="1.9"/>
  </g>
</svg>
