<svg xmlns="http://www.w3.org/2000/svg" viewBox="0 0 200 200" fill="none" stroke="currentColor" stroke-width="2" stroke-linecap="round" stroke-linejoin="round">
  <!-- Branch stem -->
  <path d="M 60 38 L 130 22" />
  <path d="M 95 30 Q 96 45 100 60" />

  <!-- Left outer leaf -->
  <path d="M 100 60 Q 70 70 28 92 Q 55 80 80 78 Q 92 72 100 60" />
  <path d="M 28 92 Q 55 78 80 78" stroke-width="1.4" />

  <!-- Left inner leaf -->
  <path d="M 100 60 Q 82 80 64 110 Q 78 92 92 84 Q 99 76 100 60" />
  <path d="M 64 110 Q 80 90 92 84" stroke-width="1.4" />

  <!-- Right inner leaf -->
  <path d="M 100 60 Q 118 80 136 110 Q 122 92 108 84 Q 101 76 100 60" />
  <path d="M 136 110 Q 120 90 108 84" stroke-width="1.4" />

  <!-- Right outer leaf -->
  <path d="M 100 60 Q 130 70 172 92 Q 145 80 120 78 Q 108 72 100 60" />
  <path d="M 172 92 Q 145 78 120 78" stroke-width="1.4" />

  <!-- Olive stems -->
  <path d="M 100 60 L 100 105" />
  <path d="M 100 60 Q 80 80 76 100" />
  <path d="M 100 60 Q 120 80 124 100" />

  <!-- Left olive -->
  <ellipse cx="74" cy="124" rx="18" ry="22" />
  <path d="M 72 105 Q 74 102 76 105" stroke-width="1.4" />

  <!-- Right olive -->
  <ellipse cx="126" cy="124" rx="18" ry="22" />
  <path d="M 124 105 Q 126 102 128 105" stroke-width="1.4" />

  <!-- Center front olive -->
  <ellipse cx="100" cy="138" rx="20" ry="25" />
  <path d="M 98 114 Q 100 110 102 114" stroke-width="1.4" />
  <path d="M 110 130 Q 114 140 110 152" stroke-width="1.2" opacity="0.6" />
</svg>
